<svg xmlns="http://www.w3.org/2000/svg" width="537" height="240.669" viewBox="0 0 537 240.669">
  <g id="achieve_your_coding_dream" transform="translate(-708 -1973.331)">
    <path id="Path_24707" data-name="Path 24707" d="M29,0H347a10.144,10.144,0,0,1,10,10.283v40.1a10.144,10.144,0,0,1-10,10.283H29c-16.016,0-29-13.351-29-29.82V29.82C0,13.351,12.984,0,29,0Z" transform="translate(798 2063.331)" fill="#ebebeb"/>
    <path id="Path_24706" data-name="Path 24706" d="M29,0H347a10,10,0,0,1,10,10V49a10,10,0,0,1-10,10H29A29,29,0,0,1,0,30V29A29,29,0,0,1,29,0Z" transform="translate(798 2060)" fill="#fff"/>
    <ellipse id="Ellipse_718" data-name="Ellipse 718" cx="25" cy="6.5" rx="25" ry="6.5" transform="translate(756 2111)" fill="#ebebeb"/>
    <path id="Path_24708" data-name="Path 24708" d="M-130.032-2.232h-4.716L-135.5,0h-3.222l4.572-12.636h3.564L-126.018,0h-3.258Zm-.792-2.376-1.566-4.626-1.548,4.626Zm5.67-1.728a6.792,6.792,0,0,1,.81-3.339,5.789,5.789,0,0,1,2.259-2.286,6.558,6.558,0,0,1,3.285-.819,6.286,6.286,0,0,1,3.852,1.188,5.705,5.705,0,0,1,2.142,3.24h-3.384a2.733,2.733,0,0,0-1.071-1.206,3.011,3.011,0,0,0-1.575-.414,2.94,2.94,0,0,0-2.3.99,3.831,3.831,0,0,0-.882,2.646,3.831,3.831,0,0,0,.882,2.646,2.94,2.94,0,0,0,2.3.99,3.011,3.011,0,0,0,1.575-.414A2.733,2.733,0,0,0-116.19-4.32h3.384a5.664,5.664,0,0,1-2.142,3.231A6.319,6.319,0,0,1-118.8.09a6.558,6.558,0,0,1-3.285-.819,5.805,5.805,0,0,1-2.259-2.277A6.741,6.741,0,0,1-125.154-6.336Zm25.182-6.3V0h-3.078V-5.2h-4.788V0h-3.078V-12.636h3.078v4.95h4.788v-4.95Zm5.292,0V0h-3.078V-12.636Zm5.31,2.466v2.556h4.122v2.376H-89.37v2.772h4.662V0h-7.74V-12.636h7.74v2.466Zm18.522-2.466L-75.33,0h-3.852l-4.482-12.636h3.276l3.132,9.54,3.15-9.54Zm4.356,2.466v2.556h4.122v2.376h-4.122v2.772h4.662V0h-7.74V-12.636h7.74v2.466Zm21.312-2.466-4.374,8.46V0h-3.078V-4.176l-4.374-8.46h3.492l2.448,5.292,2.43-5.292ZM-37.962.126A6.6,6.6,0,0,1-41.229-.7a6.19,6.19,0,0,1-2.358-2.313,6.464,6.464,0,0,1-.873-3.339,6.416,6.416,0,0,1,.873-3.33,6.209,6.209,0,0,1,2.358-2.3,6.6,6.6,0,0,1,3.267-.828,6.6,6.6,0,0,1,3.267.828,6.079,6.079,0,0,1,2.34,2.3,6.521,6.521,0,0,1,.855,3.33,6.517,6.517,0,0,1-.864,3.339A6.143,6.143,0,0,1-34.7-.7,6.545,6.545,0,0,1-37.962.126Zm0-2.808A3.1,3.1,0,0,0-35.541-3.69a3.827,3.827,0,0,0,.909-2.664,3.819,3.819,0,0,0-.909-2.673,3.114,3.114,0,0,0-2.421-1,3.15,3.15,0,0,0-2.439.99,3.812,3.812,0,0,0-.909,2.682A3.819,3.819,0,0,0-40.4-3.681,3.136,3.136,0,0,0-37.962-2.682Zm11.2-9.954v7.56a2.5,2.5,0,0,0,.558,1.746,2.105,2.105,0,0,0,1.638.612,2.165,2.165,0,0,0,1.656-.612,2.451,2.451,0,0,0,.576-1.746v-7.56h3.078v7.542a5.362,5.362,0,0,1-.72,2.862A4.61,4.61,0,0,1-21.915-.468a6.085,6.085,0,0,1-2.709.594A5.934,5.934,0,0,1-27.3-.459,4.361,4.361,0,0,1-29.16-2.223a5.633,5.633,0,0,1-.684-2.871v-7.542ZM-10.656,0l-2.628-4.77h-.738V0H-17.1V-12.636h5.166a5.687,5.687,0,0,1,2.547.522,3.6,3.6,0,0,1,1.575,1.431A3.993,3.993,0,0,1-7.29-8.658,3.761,3.761,0,0,1-8-6.408,3.827,3.827,0,0,1-10.1-5l2.916,5Zm-3.366-6.948h1.908a1.747,1.747,0,0,0,1.269-.414,1.563,1.563,0,0,0,.423-1.17,1.514,1.514,0,0,0-.423-1.134,1.747,1.747,0,0,0-1.269-.414h-1.908Zm11.952.612a6.792,6.792,0,0,1,.81-3.339A5.789,5.789,0,0,1,1-11.961a6.558,6.558,0,0,1,3.285-.819,6.286,6.286,0,0,1,3.852,1.188,5.705,5.705,0,0,1,2.142,3.24H6.894A2.733,2.733,0,0,0,5.823-9.558a3.011,3.011,0,0,0-1.575-.414,2.94,2.94,0,0,0-2.3.99,3.831,3.831,0,0,0-.882,2.646A3.831,3.831,0,0,0,1.944-3.69a2.94,2.94,0,0,0,2.3.99,3.011,3.011,0,0,0,1.575-.414A2.733,2.733,0,0,0,6.894-4.32h3.384A5.664,5.664,0,0,1,8.136-1.089,6.319,6.319,0,0,1,4.284.09,6.558,6.558,0,0,1,1-.729,5.805,5.805,0,0,1-1.26-3.006,6.741,6.741,0,0,1-2.07-6.336ZM18.144.126A6.6,6.6,0,0,1,14.877-.7a6.19,6.19,0,0,1-2.358-2.313,6.464,6.464,0,0,1-.873-3.339,6.416,6.416,0,0,1,.873-3.33,6.209,6.209,0,0,1,2.358-2.3,6.6,6.6,0,0,1,3.267-.828,6.6,6.6,0,0,1,3.267.828,6.079,6.079,0,0,1,2.34,2.3,6.521,6.521,0,0,1,.855,3.33,6.517,6.517,0,0,1-.864,3.339A6.143,6.143,0,0,1,21.4-.7,6.545,6.545,0,0,1,18.144.126Zm0-2.808A3.1,3.1,0,0,0,20.565-3.69a3.827,3.827,0,0,0,.909-2.664,3.819,3.819,0,0,0-.909-2.673,3.114,3.114,0,0,0-2.421-1,3.15,3.15,0,0,0-2.439.99A3.812,3.812,0,0,0,14.8-6.354a3.819,3.819,0,0,0,.909,2.673A3.136,3.136,0,0,0,18.144-2.682ZM31.05-12.636a7.35,7.35,0,0,1,3.492.792,5.658,5.658,0,0,1,2.313,2.223,6.532,6.532,0,0,1,.819,3.3,6.545,6.545,0,0,1-.819,3.294A5.628,5.628,0,0,1,34.533-.792,7.363,7.363,0,0,1,31.05,0H26.316V-12.636Zm-.2,9.972a3.715,3.715,0,0,0,2.718-.954,3.612,3.612,0,0,0,.972-2.7,3.674,3.674,0,0,0-.972-2.718,3.674,3.674,0,0,0-2.718-.972H29.394v7.344ZM42.48-12.636V0H39.4V-12.636ZM56.016,0H52.938L47.79-7.794V0H44.712V-12.636H47.79l5.148,7.83v-7.83h3.078Zm10.62-8.64a2.3,2.3,0,0,0-.981-.963,3.21,3.21,0,0,0-1.5-.333,3.092,3.092,0,0,0-2.394.981,3.723,3.723,0,0,0-.9,2.619A3.768,3.768,0,0,0,61.8-3.609a3.442,3.442,0,0,0,2.6.981A3.146,3.146,0,0,0,66.321-3.2,3.265,3.265,0,0,0,67.464-4.86H63.558V-7.128h6.7v2.862a6.038,6.038,0,0,1-1.161,2.142,6.126,6.126,0,0,1-2.079,1.6A6.426,6.426,0,0,1,64.17.09a6.732,6.732,0,0,1-3.339-.819,5.834,5.834,0,0,1-2.286-2.277,6.682,6.682,0,0,1-.819-3.33,6.732,6.732,0,0,1,.819-3.339,5.834,5.834,0,0,1,2.277-2.286,6.682,6.682,0,0,1,3.33-.819,6.469,6.469,0,0,1,3.825,1.1A5.182,5.182,0,0,1,70.038-8.64Zm13.878-4a7.35,7.35,0,0,1,3.492.792,5.658,5.658,0,0,1,2.313,2.223,6.532,6.532,0,0,1,.819,3.3,6.545,6.545,0,0,1-.819,3.294A5.628,5.628,0,0,1,84-.792,7.363,7.363,0,0,1,80.514,0H75.78V-12.636Zm-.2,9.972a3.715,3.715,0,0,0,2.718-.954,3.612,3.612,0,0,0,.972-2.7,3.674,3.674,0,0,0-.972-2.718,3.674,3.674,0,0,0-2.718-.972H78.858v7.344ZM95.31,0,92.682-4.77h-.738V0H88.866V-12.636h5.166a5.687,5.687,0,0,1,2.547.522,3.6,3.6,0,0,1,1.575,1.431,3.993,3.993,0,0,1,.522,2.025,3.761,3.761,0,0,1-.711,2.25,3.827,3.827,0,0,1-2.1,1.4l2.916,5ZM91.944-6.948h1.908a1.747,1.747,0,0,0,1.269-.414,1.563,1.563,0,0,0,.423-1.17,1.514,1.514,0,0,0-.423-1.134,1.747,1.747,0,0,0-1.269-.414H91.944ZM103.68-10.17v2.556H107.8v2.376H103.68v2.772h4.662V0H100.6V-12.636h7.74v2.466Zm14.526,7.938H113.49L112.734,0h-3.222l4.572-12.636h3.564L122.22,0h-3.258Zm-.792-2.376-1.566-4.626L114.3-4.608Zm20.5-8.028V0h-3.078V-7.578L132.012,0h-2.484l-2.844-7.6V0h-3.078V-12.636h3.636l3.546,8.748,3.51-8.748Z" transform="translate(1007 2096)" fill="#424242"/>
    <g id="Group_4630" data-name="Group 4630" transform="translate(41 -1270.081)">
      <g id="location" transform="translate(700 3272.986)">
        <g id="Group_4632" data-name="Group 4632" transform="translate(2.333 2.333)">
          <circle id="Ellipse_717" data-name="Ellipse 717" cx="25.5" cy="25.5" r="25.5" transform="translate(58.667 58.762)" fill="#f78077"/>
          <path id="Path_15566" data-name="Path 15566" d="M329.821,355.6a3.257,3.257,0,0,1-2.3-.958l-6.52-6.52a3.256,3.256,0,1,1,4.605-4.605l4.218,4.218L340.559,337a3.256,3.256,0,0,1,4.605,4.605l-13.041,13.041A3.257,3.257,0,0,1,329.821,355.6Z" transform="translate(-248.829 -261.561)" fill="#fafafa"/>
        </g>
        <path id="Path_15567" data-name="Path 15567" d="M42.75,0A42.79,42.79,0,0,0,0,42.75c0,29.636,38.586,68.556,40.234,70.2a3.548,3.548,0,0,0,5.032,0c.49-.49,4.23-4.275,9.262-10.131a35.489,35.489,0,0,1-4.676-17.345c0-19.349,15.72-35,34.935-35.536a40.339,40.339,0,0,0,.69-7.214A42.752,42.752,0,0,0,42.75,0Zm0,64.125A21.375,21.375,0,1,1,64.125,42.75,21.381,21.381,0,0,1,42.75,64.125Z" fill="#00a5ec"/>
      </g>
    </g>
  </g>
</svg>
