<svg xmlns="http://www.w3.org/2000/svg" width="698" height="400" viewBox="0 0 698 400"><defs><style>.a{fill:#d4e9fa;}.b,.c{fill:#4759a1;}.c,.e{opacity:0.5;}.d,.e{fill:#6376bf;}.f{fill:#1b5063;}.g{fill:#143c4a;}.h{fill:#b4cbdd;}.i{fill:#000404;}.j{fill:#d1cce5;}.j,.k,.m,.n,.r,.t{fill-rule:evenodd;}.k{fill:#e2e4e8;}.l{fill:#00a195;}.m{fill:#535671;}.n{fill:#66646d;}.o{fill:#eeeeef;}.p{fill:#3e3a39;}.q,.r{fill:#fff;}.s{fill:#17acb3;}.t{fill:#e7e5e4;}.u{fill:#84807f;}.v{fill:#98a19c;}.w{fill:#7e7e7e;}.x{fill:#ff7743;}.y{fill:#ef6540;}.z{fill:#eaf6f8;}</style></defs><g transform="translate(-2 0.018)"><g transform="translate(2 -0.018)"><path class="a" d="M99.06,394.272H634.81c1.67-4.212,3.47-8.364,5.43-12.426,11.54-23.962,28-45.313,35.55-71.136,7.82-26.754,4.83-57.6-9.71-80.711-24.33-38.68-74.37-49.826-98.35-88.765-19-30.906-18.38-74.528-42.52-100.742-18.88-20.48-48.16-24.422-74.47-20.8S399,33.227,372.65,36.018A149.063,149.063,0,0,1,292,21.821C277.91,15.008,264.56,5.893,249.58,2c-23.75-6.153-49.75,2.131-68.16,19.75S152.1,65.6,150,92.357c-1.83,23.462,2.7,46.894,3.84,70.406s-1.78,48.9-15.91,66.564c-13.75,17.2-35.62,24.012-50.37,40.171-21.93,24.012-22.87,64.783-8.61,95.049a122.067,122.067,0,0,0,20.11,29.725Z" transform="translate(-2 0.018)"/><rect class="b" width="101.08" height="4.79" transform="translate(108.59 291.86) rotate(90)"/><rect class="c" width="6.8" height="4.79" transform="translate(108.58 299.362) rotate(90)"/><rect class="b" width="101.08" height="4.79" transform="translate(60.93 291.87) rotate(90)"/><rect class="c" width="6.8" height="4.79" transform="translate(60.93 299.362) rotate(90)"/><rect class="d" width="101.08" height="4.79" transform="translate(35.39 291.86) rotate(90)"/><rect class="e" width="6.8" height="4.79" transform="translate(35.39 299.372) rotate(90)"/><rect class="d" width="101.08" height="4.79" transform="translate(83.05 291.86) rotate(90)"/><rect class="e" width="6.8" height="4.79" transform="translate(83.05 299.362) rotate(90)"/><rect class="d" width="77.98" height="7.55" transform="translate(30.6 291.808)"/><rect class="e" width="77.98" height="2.18" transform="translate(30.6 291.806)"/><rect class="f" width="35.88" height="3.16" transform="translate(40.6 288.645)"/><rect class="g" width="31.41" height="3.16" transform="translate(60.32 288.645)"/><path class="g" d="M93.68,288.48H62.27l2.66-19.9a1.37,1.37,0,0,1,1.36-1.19H94.92a1.37,1.37,0,0,1,1.36,1.55Z" transform="translate(-2 0.161)"/><rect class="h" width="698" height="3.93" transform="translate(0 391.18)"/><g transform="translate(127.1 126.22)"><rect class="i" width="377.84" height="264.1" rx="20.1" transform="translate(46.06)"/><path class="j" d="M129.1,368.44v4.9c0,10.65,11.19,19.29,25,19.29h420c13.8,0,25-8.64,25-19.29v-4.9Z" transform="translate(-129.1 -126)"/><path class="k" d="M189.91,142.83v205H536.44V159.91H189.91Z" transform="translate(-129.1 -126)"/><rect class="l" width="346.53" height="17.08" transform="translate(60.81 16.83)"/><path class="m" d="M574.08,399.78ZM153.97,399.78ZM574.21,399.78ZM574.35,399.78Zm.11,0h0" transform="translate(-129.1 -126)"/><path class="n" d="M596.67,381.59H131.5c4,6.5,12.55,11,22.47,11H574.48A30.9,30.9,0,0,0,586,390.3h.33a22.51,22.51,0,0,0,10.34-8.71Z" transform="translate(-129.1 -126)"/><g transform="translate(288.7 49)"><rect class="o" width="93.7" height="125.04" transform="translate(0.33 3.59)"/><rect class="p" width="94.18" height="128.58"/><rect class="q" width="23.59" height="1.48" transform="translate(9.35 12.87)"/><rect class="q" width="12.46" height="1.48" transform="translate(9.35 16.52)"/><rect class="q" width="20.1" height="1.48" transform="translate(9.35 20.17)"/><rect class="q" width="11.73" height="1.48" transform="translate(18.7 27.46)"/><rect class="q" width="11.41" height="1.48" transform="translate(26.84 31.11)"/><rect class="q" width="21.26" height="1.48" transform="translate(26 16.52)"/><rect class="q" width="10.15" height="1.48" transform="translate(50.28 16.52)"/><rect class="q" width="13.7" height="1.48" transform="translate(64.29 16.52)"/><rect class="q" width="11.96" height="1.48" transform="translate(32.8 20.17)"/><path class="r" d="M448.23,198.82H436.5v1.47h22.15v-1.47Z" transform="translate(-417.8 -175)"/><rect class="q" width="11.73" height="1.48" transform="translate(34.01 27.46)"/><rect class="q" width="13.03" height="1.48" transform="translate(44.11 23.82)"/><rect class="q" width="6.84" height="1.48" transform="translate(59.75 23.82)"/><rect class="q" width="8.47" height="1.48" transform="translate(69.52 23.82)"/><rect class="q" width="14.81" height="1.48" transform="translate(48.34 27.46)"/><rect class="q" width="4.43" height="1.48" transform="translate(65.36 27.46)"/><rect class="q" width="8.48" height="1.48" transform="translate(41.5 31.11)"/><rect class="q" width="11.73" height="1.48" transform="translate(18.7 38.41)"/><rect class="q" width="11.73" height="1.48" transform="translate(18.7 42.06)"/><rect class="q" width="10.56" height="1.48" transform="translate(34.01 42.06)"/><path class="r" d="M463.55,213.41H451.81v1.48h20.12v-1.48Z" transform="translate(-417.8 -175)"/><rect class="q" width="5.27" height="1.48" transform="translate(56.13 38.41)"/><rect class="q" width="6.52" height="1.48" transform="translate(63.66 38.41)"/><rect class="q" width="11.74" height="1.48" transform="translate(54.85 42.06)"/><rect class="q" width="11.73" height="1.48" transform="translate(18.7 45.71)"/><rect class="q" width="11.73" height="1.48" transform="translate(18.7 49.36)"/><rect class="q" width="6.85" height="1.48" transform="translate(34.01 45.71)"/><rect class="q" width="21.5" height="1.48" transform="translate(34.01 49.36)"/><path class="r" d="M474.94,220.71H461.91v1.48h22.47v-1.48Z" transform="translate(-417.8 -175)"/><rect class="q" width="8.47" height="1.48" transform="translate(69.52 45.71)"/><rect class="q" width="12.06" height="1.48" transform="translate(58.11 49.36)"/><rect class="q" width="4.99" height="1.48" transform="translate(46.92 42.06)"/><rect class="q" width="12.46" height="1.48" transform="translate(9.35 56.66)"/><rect class="q" width="20.1" height="1.48" transform="translate(9.35 60.3)"/><rect class="q" width="11.73" height="1.48" transform="translate(18.7 63.95)"/><rect class="q" width="11.73" height="1.49" transform="translate(18.7 67.6)"/><path class="r" d="M460.86,231.66H443.8v1.47h20.77v-1.47Z" transform="translate(-417.8 -175)"/><rect class="q" width="18.94" height="1.48" transform="translate(50.63 56.66)"/><rect class="q" width="11.96" height="1.48" transform="translate(32.8 60.3)"/><rect class="q" width="9.12" height="1.49" transform="translate(34.01 67.6)"/><path class="r" d="M469.89,238.95H451.81v1.48h26.55v-1.48Z" transform="translate(-417.8 -175)"/><rect class="q" width="17.42" height="1.49" transform="translate(45.73 67.6)"/><rect class="q" width="4.43" height="1.49" transform="translate(65.36 67.6)"/><rect class="q" width="8.48" height="1.48" transform="translate(41.5 71.25)"/><path class="r" d="M456.04,246.25h-11.4v1.48h40.81v-1.48Z" transform="translate(-417.8 -175)"/><rect class="q" width="4.72" height="1.48" transform="translate(70 71.25)"/><rect class="q" width="11.73" height="1.48" transform="translate(18.7 78.54)"/><rect class="q" width="11.73" height="1.48" transform="translate(18.7 82.2)"/><rect class="q" width="19.31" height="1.48" transform="translate(34.01 78.54)"/><rect class="q" width="10.56" height="1.48" transform="translate(34.01 82.2)"/><rect class="q" width="5.27" height="1.48" transform="translate(56.13 78.54)"/><rect class="q" width="6.52" height="1.48" transform="translate(63.66 78.54)"/><rect class="q" width="11.74" height="1.48" transform="translate(54.85 82.2)"/><rect class="q" width="4.99" height="1.48" transform="translate(46.92 82.2)"/><rect class="q" width="12.46" height="1.48" transform="translate(9.35 88.18)"/><rect class="q" width="20.1" height="1.48" transform="translate(9.35 91.82)"/><rect class="q" width="11.73" height="1.48" transform="translate(18.7 95.48)"/><rect class="q" width="11.73" height="1.48" transform="translate(18.7 99.12)"/><rect class="q" width="11.41" height="1.48" transform="translate(26.84 102.77)"/><rect class="q" width="11.79" height="1.48" transform="translate(26 88.18)"/><path class="r" d="M470.97,263.18H458.61v1.48h37.18v-1.48Z" transform="translate(-417.8 -175)"/><rect class="q" width="11.96" height="1.48" transform="translate(32.8 91.82)"/><rect class="q" width="9.12" height="1.48" transform="translate(34.01 99.12)"/><path class="r" d="M469.62,270.48H451.81v1.47h26.55v-1.47Z" transform="translate(-417.8 -175)"/><rect class="q" width="6.04" height="1.48" transform="translate(63.16 95.48)"/><rect class="q" width="5.85" height="1.48" transform="translate(72.14 95.48)"/><rect class="q" width="17.42" height="1.48" transform="translate(45.73 99.12)"/><rect class="q" width="4.43" height="1.48" transform="translate(65.36 99.12)"/><rect class="q" width="8.48" height="1.48" transform="translate(41.5 102.77)"/><rect class="q" width="11.73" height="1.48" transform="translate(18.7 113.72)"/><path class="r" d="M448.23,285.07H436.5v1.48h34.61v-1.48Z" transform="translate(-417.8 -175)"/><rect class="q" width="10.56" height="1.48" transform="translate(34.01 113.72)"/><rect class="q" width="5.27" height="1.48" transform="translate(56.13 110.07)"/><rect class="q" width="6.52" height="1.48" transform="translate(63.66 110.07)"/><rect class="q" width="11.74" height="1.48" transform="translate(54.85 113.72)"/><rect class="q" width="4.99" height="1.48" transform="translate(46.92 113.72)"/><rect class="s" width="94.18" height="7.34"/><path class="t" d="M507.46,178.2a1.93,1.93,0,1,1-1.93-1.92,1.93,1.93,0,0,1,1.93,1.92Z" transform="translate(-417.8 -175)"/><path class="t" d="M501.05,178.2a1.93,1.93,0,1,1-1.92-1.92,1.93,1.93,0,0,1,1.92,1.92Z" transform="translate(-417.8 -175)"/></g><g transform="translate(42.195 17.291)"><path class="u" d="M203.24,175.9l-6.06,5.51a3.87,3.87,0,0,1-5.47-.25l-12.44-13.65a3.88,3.88,0,0,1,.26-5.47l6.05-5.52a3.88,3.88,0,0,1,5.47.25l12.44,13.66a3.87,3.87,0,0,1-.25,5.47Zm-8.65,2.23,5.62-5.12-12-13.21-5.61,5.12Z" transform="translate(-171.296 -143.291)"/><rect class="u" width="5.21" height="25.77" rx="1.79" transform="matrix(0.818, -0.575, 0.575, 0.818, 0, 3.001)"/><rect class="u" width="5.21" height="25.77" rx="1.79" transform="translate(22.158 31.938) rotate(-47.05)"/><path class="u" d="M231.59,198.24l-4.89,6.57a3.89,3.89,0,0,1-5.42.79l-14.81-11a3.89,3.89,0,0,1-.79-5.42l4.9-6.57a3.88,3.88,0,0,1,5.42-.79l14.8,11a3.87,3.87,0,0,1,.79,5.42Zm-8.06,3.84,4.54-6.09L213.74,185.3l-4.54,6.09Z" transform="translate(-171.296 -143.291)"/><rect class="u" width="5.228" height="25.859" rx="1.796" transform="translate(52.052 55.742) rotate(-60.113)"/><path class="u" d="M264.08,214.39l-3.6,7.36a3.87,3.87,0,0,1-5.18,1.77l-16.59-8.12a3.88,3.88,0,0,1-1.77-5.18l3.6-7.35a3.87,3.87,0,0,1,5.18-1.78l16.59,8.12A3.87,3.87,0,0,1,264.08,214.39Zm-7.21,5.26,3.34-6.83L244.15,205l-3.33,6.82Z" transform="translate(-171.296 -143.291)"/><rect class="u" width="5.21" height="25.77" rx="1.79" transform="translate(83.949 74.389) rotate(-63.98)"/><path class="u" d="M298,229.63l-3.14,7.56a3.87,3.87,0,0,1-5.06,2.1l-17.06-7.07a3.89,3.89,0,0,1-2.1-5.06l3.14-7.57a3.88,3.88,0,0,1,5.06-2.09l17.06,7.07A3.88,3.88,0,0,1,298,229.63Zm-6.88,5.69,2.91-7-16.51-6.84-2.91,7Z" transform="translate(-171.296 -143.291)"/><rect class="u" width="5.21" height="25.77" rx="1.79" transform="translate(118.444 90.739) rotate(-73.04)"/><path class="u" d="M332.45,239.12,330.26,247a3.87,3.87,0,0,1-4.76,2.7l-17.8-4.94A3.87,3.87,0,0,1,305,240l2.19-7.9a3.88,3.88,0,0,1,4.77-2.69l17.79,4.93A3.88,3.88,0,0,1,332.45,239.12Zm-6.13,6.49,2-7.32-17.22-4.77-2,7.32Z" transform="translate(-171.296 -143.291)"/><path class="u" d="M524.2,170.43l12.44-13.66a3.88,3.88,0,0,1,5.47-.25l6,5.52a3.88,3.88,0,0,1,.26,5.47L536,181.16a3.87,3.87,0,0,1-5.47.25l-6.06-5.51a3.87,3.87,0,0,1-.27-5.47Zm20.93-5.51-5.61-5.12-12,13.21,5.62,5.12Z" transform="translate(-171.296 -143.291)"/><rect class="u" width="25.77" height="5.21" rx="1.79" transform="matrix(0.575, -0.818, 0.818, 0.575, 366.014, 21.086)"/><rect class="u" width="25.77" height="5.21" rx="1.79" transform="translate(340.532 45.712) rotate(-42.95)"/><path class="u" d="M496.89,192.82l14.8-11a3.88,3.88,0,0,1,5.42.79l4.9,6.57a3.89,3.89,0,0,1-.79,5.42l-14.81,11a3.89,3.89,0,0,1-5.42-.79l-4.89-6.57a3.87,3.87,0,0,1,.79-5.42Zm21.6-1.43L514,185.3,499.62,196l4.54,6.09Z" transform="translate(-171.296 -143.291)"/><rect class="u" width="25.77" height="5.21" rx="1.79" transform="matrix(0.867, -0.499, 0.499, 0.867, 309.024, 64.551)"/><path class="u" d="M465.38,209.21,482,201.09a3.87,3.87,0,0,1,5.18,1.78l3.6,7.35A3.88,3.88,0,0,1,489,215.4l-16.59,8.12a3.87,3.87,0,0,1-5.18-1.77l-3.6-7.36A3.87,3.87,0,0,1,465.38,209.21Zm21.49,2.58L483.54,205l-16.06,7.85,3.34,6.83Z" transform="translate(-171.296 -143.291)"/><rect class="u" width="25.77" height="5.21" rx="1.79" transform="translate(275.702 80.984) rotate(-26.02)"/><path class="u" d="M431.79,224.57l17.06-7.07a3.88,3.88,0,0,1,5.06,2.09l3.14,7.57a3.89,3.89,0,0,1-2.1,5.06l-17.06,7.07a3.87,3.87,0,0,1-5.06-2.1l-3.14-7.56A3.88,3.88,0,0,1,431.79,224.57Zm21.29,3.91-2.91-7-16.51,6.84,2.91,7Z" transform="translate(-171.296 -143.291)"/><rect class="u" width="25.77" height="5.21" rx="1.79" transform="matrix(0.956, -0.292, 0.292, 0.956, 240.499, 93.24)"/><path class="u" d="M397.94,234.35l17.79-4.93a3.88,3.88,0,0,1,4.77,2.69l2.19,7.9a3.87,3.87,0,0,1-2.7,4.76l-17.8,4.94a3.87,3.87,0,0,1-4.76-2.7l-2.19-7.89A3.88,3.88,0,0,1,397.94,234.35Zm20.65,6.49-2-7.32-17.22,4.77,2,7.32Z" transform="translate(-171.296 -143.291)"/><path class="v" d="M364.35,227.43h0a29.67,29.67,0,0,0-11,2,23.06,23.06,0,0,0-7.95,5.28,26.62,26.62,0,0,0-6.69,12.72,30.678,30.678,0,0,0-.81,6.69v14.34h11.61V254c0-.4.1-7,4.24-11.2,2.48-2.49,6-3.71,10.7-3.73V227.43Z" transform="translate(-171.296 -143.291)"/><path class="w" d="M390.19,247.43a26.62,26.62,0,0,0-6.69-12.72,23.11,23.11,0,0,0-7.94-5.28,29.75,29.75,0,0,0-11-2h-.11V239c4.71,0,8.21,1.24,10.69,3.73,4.12,4.16,4.23,10.74,4.24,11.19v14.5H391v-14.3a30.676,30.676,0,0,0-.81-6.69Z" transform="translate(-171.296 -143.291)"/><path class="x" d="M334.85,268.31a7.22,7.22,0,0,0-7.41,7v56.05a7.22,7.22,0,0,0,7.41,7h29.61V268.31Z" transform="translate(-171.296 -143.291)"/><path class="y" d="M394.06,268.31h-29.6v70.07h29.6a7.22,7.22,0,0,0,7.41-7V275.32A7.22,7.22,0,0,0,394.06,268.31Z" transform="translate(-171.296 -143.291)"/><path class="z" d="M376.29,297.71A11.08,11.08,0,1,0,359.14,307v18.58a.92.92,0,0,0,.92.92h10.31a.92.92,0,0,0,.92-.92V307a11.08,11.08,0,0,0,5-9.29Z" transform="translate(-171.296 -143.291)"/><path class="u" d="M351.34,246.39a1.92,1.92,0,0,1,1.43,2.3l-.48,1.57a1.92,1.92,0,0,1-2.47,1.11L325.64,244a1.92,1.92,0,0,1-1.43-2.3l.48-1.57a1.92,1.92,0,0,1,2.47-1.12Z" transform="translate(-171.296 -143.291)"/><path class="u" d="M376.35,246.39a1.92,1.92,0,0,0-1.43,2.3l.48,1.57a1.92,1.92,0,0,0,2.47,1.11L402.05,244a1.92,1.92,0,0,0,1.43-2.3l-.48-1.57a1.92,1.92,0,0,0-2.47-1.12Z" transform="translate(-171.296 -143.291)"/></g></g></g></g></svg>