<svg xmlns="http://www.w3.org/2000/svg" xmlns:xlink="http://www.w3.org/1999/xlink" width="78" height="66" viewBox="0 0 78 66">
  <defs>
    <clipPath id="clip-path">
      <rect id="Rectangle_3720" data-name="Rectangle 3720" width="38" height="38.95" transform="translate(0 0)" fill="#0fb582" stroke="#707070" stroke-width="1"/>
    </clipPath>
  </defs>
  <g id="Group_4938" data-name="Group 4938" transform="translate(-287 -2729)">
    <g id="Rectangle_3719" data-name="Rectangle 3719" transform="translate(287 2729)" fill="#e4f6f1" stroke="#0fb582" stroke-width="1" stroke-dasharray="3">
      <rect width="78" height="66" rx="4" stroke="none"/>
      <rect x="0.5" y="0.5" width="77" height="65" rx="3.5" fill="none"/>
    </g>
    <g id="Mask_Group_123" data-name="Mask Group 123" transform="translate(307 2743)" clip-path="url(#clip-path)">
      <g id="support" transform="translate(1.567 0.17)">
        <g id="Group_4933" data-name="Group 4933" transform="translate(24.849 29.819)">
          <g id="Group_4932" data-name="Group 4932">
            <path id="Path_16569" data-name="Path 16569" d="M40.386,44.086a.753.753,0,1,0,.753.753A.753.753,0,0,0,40.386,44.086Z" transform="translate(-39.633 -44.086)" fill="#0fb582"/>
          </g>
        </g>
        <g id="Group_4935" data-name="Group 4935">
          <g id="Group_4934" data-name="Group 4934">
            <path id="Path_16570" data-name="Path 16570" d="M30.351,27.384l-3.579-1.193-1.285-2.57a8.247,8.247,0,0,0,2.232-4.363l.16-.96h1.37a2.262,2.262,0,0,0,2.259-2.259V11.3a11.3,11.3,0,0,0-22.59,0v4.744a2.263,2.263,0,0,0,1.506,2.13v.883a2.262,2.262,0,0,0,2.259,2.259h.661a8.169,8.169,0,0,0,1.263,1.956c.107.123.218.241.332.357l-1.284,2.568-3.579,1.193A11.1,11.1,0,0,0,2.895,37.8a.753.753,0,0,0,.753.753H36.78a.753.753,0,0,0,.753-.753A11.1,11.1,0,0,0,30.351,27.384ZM30,16.039a.754.754,0,0,1-.753.753H28.1c.191-1.483.319-3.06.37-4.614,0-.044,0-.086,0-.13H30Zm-18.825.753a.754.754,0,0,1-.753-.753V12.048h1.528q0,.118.008.237v.008h0c.053,1.511.179,3.048.366,4.5H11.178ZM12.684,19.8a.754.754,0,0,1-.753-.753V18.3h.617l.16.961c.031.183.068.365.112.545Zm-.752-9.262H10.453a9.79,9.79,0,0,1,19.521,0H28.5a7.627,7.627,0,0,0-7.608-7.53H19.54A7.627,7.627,0,0,0,11.932,10.542ZM19.54,4.518h1.348a6.123,6.123,0,0,1,6.1,6.13c0,.237,0,.443-.006.631,0,0,0,0,0,.007l-.942-.135a12.1,12.1,0,0,1-6.8-3.4.753.753,0,0,0-.532-.221,6.813,6.813,0,0,0-5.238,2.478A6.121,6.121,0,0,1,19.54,4.518ZM14.381,19.8a43.041,43.041,0,0,1-.9-7.308l1.013-1.351a5.3,5.3,0,0,1,3.919-2.1,13.62,13.62,0,0,0,7.42,3.6l1.109.158c-.074,1.573-.226,3.151-.442,4.6v0c-.069.467-.123.767-.262,1.606a6.4,6.4,0,0,1-4.54,5.144,5.925,5.925,0,0,1-6.651-2.845h1.535a2.263,2.263,0,0,0,2.13,1.506h1.506a2.259,2.259,0,1,0,0-4.518H18.708A2.26,2.26,0,0,0,16.577,19.8Zm4.263,5.875a7.553,7.553,0,0,0,2.8.063l-1.331,1.407Zm.435,2.565L16.691,30.77a28.691,28.691,0,0,1-1.686-3.909l.9-1.794ZM24.4,24.811l1.024,2.049a28.683,28.683,0,0,1-1.686,3.911L21.18,28.215Zm-6.443-4.254a.753.753,0,0,1,.753-.753h1.506a.753.753,0,1,1,0,1.506H18.708A.754.754,0,0,1,17.955,20.557ZM4.431,37.048a9.516,9.516,0,0,1,6.122-8.235l3.17-1.056a30.186,30.186,0,0,0,2.143,4.649l0,.008h0a30.194,30.194,0,0,0,2.061,3.148l.926,1.487Zm15.783-.671-1.021-1.64q-.017-.028-.037-.054a28.713,28.713,0,0,1-1.7-2.535l2.685-2.84,2.83,2.83a28.681,28.681,0,0,1-1.7,2.545C21.235,34.733,21.287,34.655,20.214,36.377Zm1.356.671.926-1.487a30.183,30.183,0,0,0,2.076-3.173l.011-.02v0a30.161,30.161,0,0,0,2.121-4.609l3.17,1.056A9.516,9.516,0,0,1,36,37.048Z" transform="translate(-2.895)" fill="#0fb582"/>
          </g>
        </g>
        <g id="Group_4937" data-name="Group 4937" transform="translate(27.495 31.257)">
          <g id="Group_4936" data-name="Group 4936">
            <path id="Path_16571" data-name="Path 16571" d="M46.889,48.955a7.529,7.529,0,0,0-2.132-2.588.753.753,0,0,0-.918,1.194,6.014,6.014,0,0,1,1.7,2.067.753.753,0,0,0,1.347-.673Z" transform="translate(-43.545 -46.211)" fill="#0fb582"/>
          </g>
        </g>
      </g>
    </g>
  </g>
</svg>
