<svg xmlns="http://www.w3.org/2000/svg" width="46" height="46" viewBox="0 0 46 46">
  <defs>
    <style>
      .cls-1 {
        fill: #fdf0d7;
        stroke: #f78077;
        stroke-dasharray: 6 4;
      }

      .cls-2 {
        fill: #f78077;
      }

      .cls-3 {
        stroke: none;
      }

      .cls-4 {
        fill: none;
      }
    </style>
  </defs>
  <g id="personalised_learning" transform="translate(-683 -1213)">
    <g id="Ellipse_653" data-name="Ellipse 653" class="cls-1" transform="translate(683 1213)">
      <circle class="cls-3" cx="23" cy="23" r="23"/>
      <circle class="cls-4" cx="23" cy="23" r="22.5"/>
    </g>
    <g id="Group_3243" data-name="Group 3243" transform="translate(691 1221)">
      <path id="Path_15086" data-name="Path 15086" class="cls-2" d="M25.845,4.724H24.121V4.293a1.293,1.293,0,1,0-2.586,0v.431h-.862V4.293a1.293,1.293,0,1,0-2.586,0v.431H12.914V4.293a1.293,1.293,0,0,0-2.586,0v.431H9.466V4.293a1.293,1.293,0,0,0-2.586,0v.431H5.155A2.155,2.155,0,0,0,3,6.879V25.845A2.155,2.155,0,0,0,5.155,28h20.69A2.155,2.155,0,0,0,28,25.845V18.086a.431.431,0,0,0-.862,0v.431H21.966v-4.31h5.172a.431.431,0,1,0,.862,0V6.879A2.155,2.155,0,0,0,25.845,4.724ZM22.4,4.293a.431.431,0,1,1,.862,0V6.017a.431.431,0,1,1-.862,0Zm-3.448,0a.431.431,0,1,1,.862,0V6.017a.431.431,0,1,1-.862,0Zm-7.759,0a.431.431,0,0,1,.862,0V6.017a.431.431,0,1,1-.862,0Zm-3.448,0a.431.431,0,0,1,.862,0V6.017a.431.431,0,1,1-.862,0ZM5.155,5.586H6.879v.431a1.293,1.293,0,1,0,2.586,0V5.586h.862v.431a1.293,1.293,0,0,0,2.586,0V5.586h5.172v.431a1.293,1.293,0,1,0,2.586,0V5.586h.862v.431a1.293,1.293,0,1,0,2.586,0V5.586h1.724a1.293,1.293,0,0,1,1.293,1.293V8.172H3.862V6.879A1.293,1.293,0,0,1,5.155,5.586ZM21.1,13.345H15.931V9.034H21.1ZM15.931,23.69v-4.31H21.1v4.31Zm-.862,0H9.9v-4.31h5.172Zm-11.207,0v-4.31H9.034v4.31ZM9.034,13.345H3.862V9.034H9.034Zm0,.862v4.31H3.862v-4.31Zm.862,4.31v-4.31h5.172v4.31Zm0-5.172V9.034h5.172v4.31ZM25.845,27.138H5.155a1.293,1.293,0,0,1-1.293-1.293V24.552H27.138v1.293a1.293,1.293,0,0,1-1.293,1.293Zm1.293-7.759v4.31H21.966v-4.31ZM21.1,18.517H15.931v-4.31H21.1Zm.862-5.172V9.034h5.172v4.31Z"/>
      <path id="Path_15087" data-name="Path 15087" class="cls-2" d="M59,32.431v.431a.431.431,0,1,0,.862,0v-.431a.431.431,0,1,0-.862,0Z" transform="translate(-31.862 -16.5)"/>
      <path id="Path_15088" data-name="Path 15088" class="cls-2" d="M23.709,31.123l-1.418,1.422-.556-.56a.433.433,0,0,0-.612.612l.862.862a.431.431,0,0,0,.612,0l1.724-1.724a.433.433,0,0,0-.612-.612Z" transform="translate(-10.239 -15.929)"/>
      <path id="Path_15089" data-name="Path 15089" class="cls-2" d="M37.709,43.123l-1.418,1.422-.556-.56a.433.433,0,0,0-.612.612c1.418,1.414.862,1.466,3.2-.862a.433.433,0,1,0-.612-.612Z" transform="translate(-18.205 -22.756)"/>
      <path id="Path_15090" data-name="Path 15090" class="cls-2" d="M51.709,19.123l-1.418,1.422-.556-.56a.433.433,0,0,0-.612.612c1.418,1.414.862,1.466,3.2-.862a.433.433,0,0,0-.612-.612Z" transform="translate(-26.17 -9.101)"/>
    </g>
  </g>
</svg>
