<svg xmlns="http://www.w3.org/2000/svg" xmlns:xlink="http://www.w3.org/1999/xlink" width="46" height="46" viewBox="0 0 46 46">
  <defs>
    <style>
      .cls-1, .cls-4 {
        fill: #0fb582;
      }

      .cls-1 {
        stroke: #707070;
      }

      .cls-2 {
        fill: #e4f6f1;
        stroke: #0fb582;
        stroke-dasharray: 6 4;
      }

      .cls-3 {
        clip-path: url(#clip-path);
      }

      .cls-5 {
        stroke: none;
      }

      .cls-6 {
        fill: none;
      }
    </style>
    <clipPath id="clip-path">
      <rect id="Rectangle_2058" data-name="Rectangle 2058" class="cls-1" width="25" height="25" transform="translate(697 1195)"/>
    </clipPath>
  </defs>
  <g id="ask_doubts_totally_live" transform="translate(-683 -1610)">
    <g id="Ellipse_655" data-name="Ellipse 655" class="cls-2" transform="translate(683 1610)">
      <circle class="cls-5" cx="23" cy="23" r="23"/>
      <circle class="cls-6" cx="23" cy="23" r="22.5"/>
    </g>
    <g id="Mask_Group_26" data-name="Mask Group 26" class="cls-3" transform="translate(-3.998 425)">
      <g id="help" transform="translate(697 1196.481)">
        <path id="Path_4037" data-name="Path 4037" class="cls-4" d="M24.417,27.648H23.8V16.874a.367.367,0,0,0-.734,0V27.648H20.01a.367.367,0,0,0,0,.734h4.256v.155a.952.952,0,0,1-.951.951H1.685a.952.952,0,0,1-.951-.951v-.155H18.447a.367.367,0,1,0,0-.734H1.929V13.157a.485.485,0,0,1,.484-.484H14.432a.367.367,0,0,0,0-.734H2.413A1.219,1.219,0,0,0,1.2,13.157V27.648H.583A.583.583,0,0,0,0,28.231v.306a1.687,1.687,0,0,0,1.685,1.685h21.63A1.687,1.687,0,0,0,25,28.537v-.306A.583.583,0,0,0,24.417,27.648Z" transform="translate(0 -8.184)"/>
        <path id="Path_4038" data-name="Path 4038" class="cls-4" d="M17.84,16.019a.367.367,0,1,0,0-.734H6.437a.367.367,0,0,0-.367.367V28.426a.367.367,0,0,0,.367.367H9.615a.367.367,0,0,0,0-.734H6.8V16.019Z" transform="translate(-3.408 -10.063)"/>
        <path id="Path_4039" data-name="Path 4039" class="cls-4" d="M24.423,25.634V23.209A1.209,1.209,0,0,0,23.215,22h-2.3l-.676-.222a.531.531,0,0,0-.7.5v3.35a2.442,2.442,0,0,0,1.177,2.088v.4l-1.611,1.338a1.512,1.512,0,0,0-.548,1.167V31.69H17.247a.367.367,0,0,0,0,.734h14.2a.367.367,0,0,0,.367-.367V22.418a.367.367,0,0,0-.734,0V31.69H25.393V30.631a1.512,1.512,0,0,0-.548-1.167l-1.611-1.338v-.4a2.442,2.442,0,0,0,1.188-2.094Zm-3.682-2.917a.366.366,0,0,0,.115.018h2.36a.474.474,0,0,1,.474.474v.738H20.274V22.563Zm-.467,1.964h3.415v.953a1.707,1.707,0,1,1-3.415,0v-.953Zm4.385,5.951V31.69H19.293V30.631a.781.781,0,0,1,.283-.6l1.378-1.144a1.257,1.257,0,0,0,2.045,0l1.378,1.144A.781.781,0,0,1,24.66,30.631ZM22.5,28.152a.525.525,0,0,1-1.049,0v-.136a2.427,2.427,0,0,0,1.049,0v.134Z" transform="translate(-9.476 -13.694)"/>
        <path id="Path_4040" data-name="Path 4040" class="cls-4" d="M42.852,3.378H37.445a2.032,2.032,0,0,0-2.03,2.03v5.935a.625.625,0,0,0,.412.591.637.637,0,0,0,.222.04.625.625,0,0,0,.476-.221L37.169,11h2.2a.367.367,0,1,0,0-.734H37a.367.367,0,0,0-.278.128l-.573.668V5.408a1.3,1.3,0,0,1,1.3-1.3h5.407a1.3,1.3,0,0,1,1.3,1.3V8.972a1.3,1.3,0,0,1-1.3,1.3H40.93a.367.367,0,0,0,0,.734h1.922a2.032,2.032,0,0,0,2.03-2.03V5.408a2.032,2.032,0,0,0-2.03-2.03Z" transform="translate(-19.882 -3.378)"/>
      </g>
    </g>
  </g>
</svg>
