<svg xmlns="http://www.w3.org/2000/svg" xmlns:xlink="http://www.w3.org/1999/xlink" width="46" height="46" viewBox="0 0 46 46">
  <defs>
    <style>
      .cls-1, .cls-4 {
        fill: #fdcd06;
      }

      .cls-1 {
        stroke: #707070;
      }

      .cls-2 {
        fill: #fff9e4;
        stroke: #fdcd06;
        stroke-dasharray: 6 4;
      }

      .cls-3 {
        clip-path: url(#clip-path);
      }

      .cls-5 {
        stroke: none;
      }

      .cls-6 {
        fill: none;
      }
    </style>
    <clipPath id="clip-path">
      <rect id="Rectangle_2065" data-name="Rectangle 2065" class="cls-1" width="25" height="25" transform="translate(1081 1916)"/>
    </clipPath>
  </defs>
  <g id="code_live_with_experts" transform="translate(-977 -1410)">
    <g id="Ellipse_654" data-name="Ellipse 654" class="cls-2" transform="translate(977 1410)">
      <circle class="cls-5" cx="23" cy="23" r="23"/>
      <circle class="cls-6" cx="23" cy="23" r="22.5"/>
    </g>
    <g id="Mask_Group_31" data-name="Mask Group 31" class="cls-3" transform="translate(-93 -496)">
      <g id="streaming" transform="translate(1081 1916)">
        <g id="Group_1741" data-name="Group 1741">
          <g id="Group_1740" data-name="Group 1740">
            <path id="Path_4078" data-name="Path 4078" class="cls-4" d="M22.984,11.839H13.635a1.2,1.2,0,0,0-2.271,0H2.016A2.018,2.018,0,0,0,0,13.855v12.9a2.018,2.018,0,0,0,2.016,2.016H7.661v1.613H6.855v.806h11.29v-.806h-.806V28.774h5.645A2.018,2.018,0,0,0,25,26.758v-12.9A2.018,2.018,0,0,0,22.984,11.839Zm-10.484,0a.4.4,0,1,1-.4.4A.4.4,0,0,1,12.5,11.839Zm4.032,18.548H8.468V28.774h8.065Zm7.661-3.629a1.211,1.211,0,0,1-1.21,1.21H2.016a1.211,1.211,0,0,1-1.21-1.21v-.4H24.194Zm0-1.21H.806V13.855a1.211,1.211,0,0,1,1.21-1.21h9.348a1.2,1.2,0,0,0,2.271,0h9.348a1.211,1.211,0,0,1,1.21,1.21Z" transform="translate(0 -6.194)"/>
            <path id="Path_4079" data-name="Path 4079" class="cls-4" d="M3.677,27.839H25.452V16.548H3.677Zm.806-10.484H24.645v9.677H4.484Z" transform="translate(-2.065 -9.29)"/>
            <rect id="Rectangle_2073" data-name="Rectangle 2073" class="cls-4" width="0.806" height="0.806" transform="translate(3.226 8.871)"/>
            <rect id="Rectangle_2074" data-name="Rectangle 2074" class="cls-4" width="0.806" height="0.806" transform="translate(4.839 8.871)"/>
            <rect id="Rectangle_2075" data-name="Rectangle 2075" class="cls-4" width="0.806" height="0.806" transform="translate(6.452 8.871)"/>
            <path id="Path_4080" data-name="Path 4080" class="cls-4" d="M25.886,23.558a2.016,2.016,0,1,0-3.03,0,2.423,2.423,0,0,0-1.711,2.313V28.29H27.6V25.871A2.423,2.423,0,0,0,25.886,23.558Zm-1.515-2.526a1.21,1.21,0,1,1-1.21,1.21A1.211,1.211,0,0,1,24.371,21.032Zm2.419,6.452h-.806V25.468h-.806v2.016H23.565V25.468h-.806v2.016h-.806V25.871a1.615,1.615,0,0,1,1.613-1.613h1.613a1.615,1.615,0,0,1,1.613,1.613Z" transform="translate(-11.871 -11.355)"/>
            <path id="Path_4081" data-name="Path 4081" class="cls-4" d="M22.205.806A5.255,5.255,0,0,1,26.467,3l.656-.469a6.037,6.037,0,0,0-9.835,0L17.944,3A5.255,5.255,0,0,1,22.205.806Z" transform="translate(-9.705)"/>
            <path id="Path_4082" data-name="Path 4082" class="cls-4" d="M26.834,6.006l.656-.469a4.428,4.428,0,0,0-7.213,0l.656.469a3.621,3.621,0,0,1,5.9,0Z" transform="translate(-11.384 -2.065)"/>
            <path id="Path_4083" data-name="Path 4083" class="cls-4" d="M23.268,8.538l.656.469a2.01,2.01,0,0,1,3.277,0l.656-.469a2.817,2.817,0,0,0-4.59,0Z" transform="translate(-13.063 -4.129)"/>
            <rect id="Rectangle_2076" data-name="Rectangle 2076" class="cls-4" width="0.806" height="0.806" transform="translate(3.226 10.484)"/>
            <rect id="Rectangle_2077" data-name="Rectangle 2077" class="cls-4" width="0.806" height="0.806" transform="translate(4.839 10.484)"/>
            <rect id="Rectangle_2078" data-name="Rectangle 2078" class="cls-4" width="0.806" height="0.806" transform="translate(3.226 12.097)"/>
            <rect id="Rectangle_2079" data-name="Rectangle 2079" class="cls-4" width="0.806" height="0.806" transform="translate(20.968 15.726)"/>
            <rect id="Rectangle_2080" data-name="Rectangle 2080" class="cls-4" width="0.806" height="0.806" transform="translate(19.355 15.726)"/>
            <rect id="Rectangle_2081" data-name="Rectangle 2081" class="cls-4" width="0.806" height="0.806" transform="translate(17.742 15.726)"/>
            <rect id="Rectangle_2082" data-name="Rectangle 2082" class="cls-4" width="0.806" height="0.806" transform="translate(20.968 14.113)"/>
            <rect id="Rectangle_2083" data-name="Rectangle 2083" class="cls-4" width="0.806" height="0.806" transform="translate(19.355 14.113)"/>
            <rect id="Rectangle_2084" data-name="Rectangle 2084" class="cls-4" width="0.806" height="0.806" transform="translate(20.968 12.5)"/>
          </g>
        </g>
      </g>
    </g>
  </g>
</svg>
