<svg xmlns="http://www.w3.org/2000/svg" width="46" height="46" viewBox="0 0 46 46">
  <defs>
    <style>
      .cls-1 {
        fill: #ffe7ed;
        stroke: #f07795;
        stroke-dasharray: 6 4;
      }

      .cls-2 {
        fill: #f07795;
      }

      .cls-3 {
        stroke: none;
      }

      .cls-4 {
        fill: none;
      }
    </style>
  </defs>
  <g id="personalised_practice" transform="translate(-971 -1808)">
    <g id="Ellipse_656" data-name="Ellipse 656" class="cls-1" transform="translate(971 1808)">
      <circle class="cls-3" cx="23" cy="23" r="23"/>
      <circle class="cls-4" cx="23" cy="23" r="22.5"/>
    </g>
    <g id="Group_3244" data-name="Group 3244" transform="translate(430.294 -1039)">
      <path id="Path_15091" data-name="Path 15091" class="cls-2" d="M30.186,50.37a.481.481,0,0,0-.208-.315l-1.7-1.125,1.447-4.024a.482.482,0,0,0-.29-.616l-.769-.277a.482.482,0,0,0-.616.29l-3.205,8.91a.482.482,0,0,0,.29.616l.769.277a.482.482,0,0,0,.616-.29l1.322-3.674.489.7v3.621H23.583a1.048,1.048,0,0,0,.069-.365c0-1.294-2.154-1.6-4.237-1.9-.483-.069-.939-.135-1.319-.207-1.16-.221-1.481-2.788-1.5-3.67l0-.079-.541-1.486a3.5,3.5,0,1,0-3.492-.827c-1.056.715-2.777,2.053-2.695,3.13a37.852,37.852,0,0,1-1.022,5.779l-.137.591h.125v1.22H33.81V54.463H30.932Zm-.9.455.663,3.638H29.29Zm-16.828-7.4a2.531,2.531,0,1,1,2.531,2.531A2.534,2.534,0,0,1,12.462,43.424Zm-1.637,5.558c-.035-.458,1.282-1.617,2.571-2.454a3.472,3.472,0,0,0,1.6.39c.031,0,.061,0,.091,0l.549,1.509c.025.691.253,4.126,2.282,4.513.4.076.868.143,1.362.214.844.121,3.411.489,3.411.948,0,.024,0,.042-.042.079a2.643,2.643,0,0,1-1.548.287h-.206a29.4,29.4,0,0,1-3.6-.326c-2.673-.371-2.975-3.362-2.986-3.488l-.96.083a5.186,5.186,0,0,0,2.116,3.731H9.916A33.38,33.38,0,0,0,10.825,48.982Zm22.021,6.7H9.794v-.256H20.811l.164,0,.121,0H32.847v.256Z" transform="translate(542 2825.604)"/>
      <path id="Path_15092" data-name="Path 15092" class="cls-2" d="M38.575,16.895c.127-.056.253-.113.375-.176.057-.029.111-.063.167-.093.094-.052.189-.1.28-.16.061-.038.119-.079.179-.118.082-.054.165-.108.244-.166.06-.044.118-.091.177-.136.074-.058.149-.116.221-.177s.114-.1.169-.152.137-.125.2-.189.107-.11.16-.166.125-.133.185-.2.1-.118.149-.178.113-.141.167-.214.091-.125.135-.188.1-.15.15-.226.082-.131.121-.2.09-.158.133-.238.073-.136.107-.205.078-.166.116-.251.062-.14.091-.21c.035-.087.066-.175.1-.264.025-.071.051-.142.074-.214.029-.092.054-.186.079-.28.019-.071.04-.141.056-.212.023-.1.042-.2.061-.3.013-.067.028-.135.038-.2.018-.113.029-.228.041-.343.006-.058.015-.115.02-.173.013-.174.021-.349.021-.525V10.7c0-.134-.012-.266-.02-.4,0-.076,0-.153-.012-.229-.02-.206-.05-.409-.088-.61,0-.018-.007-.036-.011-.054-.039-.2-.087-.391-.144-.583-.021-.072-.05-.142-.074-.213-.042-.124-.08-.249-.13-.371L42.1,8.211c-.037-.093-.081-.182-.122-.273-.033-.072-.061-.146-.1-.216s-.073-.131-.109-.2c-.049-.091-.1-.184-.15-.273-.011-.017-.023-.033-.034-.051a6.529,6.529,0,0,0-.594-.817l0,0h0a6.734,6.734,0,1,0-6.875,10.858,6.712,6.712,0,0,0,5.038,2.271c.119,0,.237,0,.356-.007l1.222-.037-.92-.806a5.762,5.762,0,0,1-1.337-1.719h0C38.512,16.926,38.543,16.909,38.575,16.895Zm-2.776.577h.055c.032,0,.063,0,.1,0,.132,0,.263-.006.393-.016l.158-.014q.175-.017.348-.042l.164-.026c.117-.02.232-.045.347-.071.048-.011.1-.021.145-.033l.054-.013a6.678,6.678,0,0,0,.772,1.234A5.741,5.741,0,0,1,35.8,17.472Zm2.6-1.556c-.092.045-.185.091-.28.131-.052.022-.106.04-.158.06-.094.037-.187.075-.284.107h0c-.08.027-.163.049-.245.073-.057.016-.114.034-.171.048s-.138.031-.208.046-.123.027-.185.038-.126.019-.19.028-.14.021-.21.028c-.055.006-.111.008-.166.013-.078.006-.157.013-.235.016-.05,0-.1,0-.151,0-.083,0-.166,0-.249,0-.053,0-.106-.007-.158-.01-.079,0-.158-.008-.236-.016s-.152-.02-.227-.03c-.054-.007-.108-.013-.161-.022-.129-.022-.258-.049-.384-.08A5.773,5.773,0,1,1,40.26,7.009a5.559,5.559,0,0,1,.946,1.567,5.673,5.673,0,0,1,.422,2.162c0,.1-.007.191-.012.287,0,.074-.006.147-.012.22s-.018.158-.028.237-.017.143-.029.214-.03.156-.047.234-.027.139-.044.207-.043.153-.065.229-.037.134-.059.2-.055.151-.083.225-.046.127-.073.19-.067.148-.1.221-.055.121-.085.18-.08.144-.12.215c-.032.056-.062.114-.1.169-.044.072-.093.141-.14.21-.035.052-.068.1-.1.156-.052.071-.108.139-.162.207-.037.046-.071.094-.109.138-.06.07-.124.137-.187.2-.037.04-.073.082-.111.12-.073.073-.15.142-.226.212-.033.03-.063.061-.1.09-.1.091-.214.177-.325.26l-.022.017q-.18.132-.371.252c-.024.015-.049.028-.074.042-.1.063-.209.125-.318.181C38.483,15.876,38.438,15.895,38.395,15.916Z" transform="translate(528.14 2850)"/>
      <path id="Path_15093" data-name="Path 15093" class="cls-2" d="M39.748,17.8l-.341-.341-.34-.34-2.525,2.525,2.525,2.525.34-.341.341-.34-.341-.341-1.5-1.5,1.5-1.5Z" transform="translate(523.1 2841.092)"/>
      <path id="Path_15094" data-name="Path 15094" class="cls-2" d="M54.357,17.119l-.34.34-.341.341.341.34,1.5,1.5-1.5,1.5-.341.341.341.34.34.341,2.525-2.525Z" transform="translate(511.466 2841.092)"/>
      <rect id="Rectangle_3402" data-name="Rectangle 3402" class="cls-2" width="0.963" height="4.571" transform="matrix(-0.956, -0.295, 0.295, -0.956, 563.781, 2863.062)"/>
    </g>
  </g>
</svg>
